<?xml version="1.0" encoding="UTF-8" standalone="no"?>
<svg
   xmlns:dc="http://purl.org/dc/elements/1.1/"
   xmlns:cc="http://creativecommons.org/ns#"
   xmlns:rdf="http://www.w3.org/1999/02/22-rdf-syntax-ns#"
   xmlns:svg="http://www.w3.org/2000/svg"
   xmlns="http://www.w3.org/2000/svg"
   viewBox="0 0 578.26666 204.09332"
   height="204.09332"
   width="578.26666"
   xml:space="preserve"
   id="svg2"
   version="1.1"><metadata
     id="metadata8"><rdf:RDF><cc:Work
         rdf:about=""><dc:format>image/svg+xml</dc:format><dc:type
           rdf:resource="http://purl.org/dc/dcmitype/StillImage" /></cc:Work></rdf:RDF></metadata><defs
     id="defs6" /><g
     transform="matrix(1.3333333,0,0,-1.3333333,0,204.09333)"
     id="g10"><g
       transform="scale(0.1)"
       id="g12"><path
         id="path14"
         style="fill:#b50e7d;fill-opacity:1;fill-rule:nonzero;stroke:none"
         d="M 4337.01,0 H 0 V 1530.71 H 4337.01 V 0" /><path
         id="path16"
         style="fill:#ffffff;fill-opacity:1;fill-rule:nonzero;stroke:none"
         d="m 692.746,1239.25 c -13.695,0 -24.836,-11.14 -24.836,-24.84 0,-13.69 11.141,-24.83 24.836,-24.83 13.695,0 24.832,11.14 24.832,24.83 0,13.7 -11.137,24.84 -24.832,24.84 z m 0,-70.5 c -25.18,0 -45.664,20.48 -45.664,45.66 0,25.18 20.484,45.66 45.664,45.66 25.18,0 45.66,-20.48 45.66,-45.66 0,-25.18 -20.48,-45.66 -45.66,-45.66" /><path
         id="path18"
         style="fill:#ffffff;fill-opacity:1;fill-rule:nonzero;stroke:none"
         d="m 394.379,1115.31 h -13.887 l -0.855,-425.646 c -4.313,-0.758 -9.063,-1.449 -14.231,-2.09 -5.234,-0.629 -10.34,-1.144 -15.316,-1.531 -2.887,-0.223 -5.606,-0.387 -8.231,-0.527 v 429.794 h -13.882 -45.036 -13.882 c -17.297,0 -31.844,-0.47 -43.25,-1.42 -12.985,-1.07 -24.047,-4.73 -32.895,-10.9 -7.594,-5.29 -13.988,-13.19 -19.211,-23.24 0.293,5.23 0.574,10.5 0.934,15.55 0.519,7.44 1.035,14.37 1.562,20.77 0.352,4.29 0.703,7.92 1.078,11.21 17.821,-0.36 35.211,-0.66 51.828,-0.86 21.856,-0.26 42.012,-0.4 60.454,-0.4 h 13.886 117.434 13.887 c 18.425,0 38.718,0.14 60.855,0.4 16.606,0.2 33.856,0.49 51.402,0.84 0.329,-3.01 0.622,-6.65 0.883,-10.98 0.403,-6.41 0.789,-13.35 1.18,-20.79 0.293,-5.56 0.512,-11.32 0.73,-17.09 -5.074,10.65 -11.414,18.98 -19.046,24.48 -8.622,6.23 -19.461,9.93 -32.235,11.01 -11.152,0.95 -25.707,1.42 -43.269,1.42 h -13.883 z m 191.578,-89.68 c 0,1.09 -0.07,4.07 -0.203,8.98 -0.137,4.7 -0.258,10.32 -0.391,16.87 -0.133,6.6 -0.343,13.88 -0.601,21.82 -0.266,7.96 -0.598,15.71 -0.989,23.28 -0.394,7.52 -0.793,14.52 -1.195,20.98 -0.414,6.79 -0.906,12.12 -1.449,15.94 -1.223,9.07 -7.742,14.94 -16.856,14.94 h -0.007 c -4.219,-0.1 -8.254,-0.16 -12.418,-0.25 -0.508,0.04 -0.93,0.25 -1.457,0.25 h -0.008 c -23.895,-0.53 -46.856,-0.92 -68.899,-1.2 -22.035,-0.26 -42.246,-0.39 -60.605,-0.39 H 303.445 c -18.359,0 -38.433,0.13 -60.207,0.39 -21.789,0.28 -44.625,0.67 -68.738,1.2 -0.973,0 -1.887,-0.11 -2.793,-0.22 -3.734,0.08 -7.297,0.14 -11.094,0.22 -10,0 -16.867,-6.14 -17.402,-14.85 -0.559,-3.84 -1.106,-9.11 -1.656,-15.81 -0.528,-6.48 -1.059,-13.49 -1.578,-21.02 -0.536,-7.56 -1.004,-15.33 -1.399,-23.29 -0.39,-7.84 -0.785,-15.05 -1.172,-21.58 -0.398,-6.71 -0.679,-12.47 -0.808,-17.28 -0.141,-4.9 -0.203,-7.89 -0.203,-8.98 v -9.43 l 40.117,-2.61 12.051,-1.2 2.011,9 c 4.297,19.23 8.801,34.24 13.371,44.61 4.051,9.21 9.016,15.9 14.758,19.9 5.797,4.03 13.434,6.47 22.699,7.23 10.84,0.9 24.817,1.35 41.539,1.35 h 24.207 V 684.531 c 0,-12.312 7.801,-20.269 19.875,-20.269 2.165,0 19.372,0.066 23.875,0.195 4.481,0.137 9.368,0.422 14.665,0.828 5.273,0.399 10.679,0.942 16.25,1.621 5.574,0.684 10.679,1.43 15.214,2.231 11.383,1.875 18.176,9.843 18.176,21.308 v 404.035 h 26.18 c 16.976,0 30.941,-0.45 41.519,-1.35 8.95,-0.75 16.278,-3.15 21.789,-7.13 5.481,-3.96 10.2,-10.62 14.028,-19.8 4.347,-10.44 8.742,-25.52 13.058,-44.82 l 2.02,-8.99 6.805,0.67 45.355,3.14 v 9.43" /><path
         id="path20"
         style="fill:#ffffff;fill-opacity:1;fill-rule:nonzero;stroke:none"
         d="m 688.359,1095.99 c -1.972,6.28 -5.019,11.42 -9.078,15.3 -4.008,3.78 -8.793,6.47 -14.273,8 -6.953,1.9 -15.301,2.16 -23.68,1.69 l -0.199,1.82 c 10.598,1.87 20.762,3.51 30.496,4.92 12.609,1.81 23.797,3.24 33.535,4.29 9.75,1.03 17.871,1.81 24.379,2.33 0.004,0 0.008,0 0.012,0 0.051,-0.36 0.09,-0.81 0.09,-1.44 l -0.848,-443.236 c -4.313,-0.758 -9.063,-1.449 -14.238,-2.09 -5.235,-0.629 -10.336,-1.144 -15.317,-1.531 -2.886,-0.223 -5.605,-0.387 -8.23,-0.527 v 389.414 c 0,8.48 -0.867,15.37 -2.649,21.06 z m 52.965,59.93 c -1.472,0 -4.355,-0.14 -8.644,-0.45 -1.657,0.29 -3.399,0.45 -5.242,0.45 -1.965,0 -6.45,-0.26 -13.45,-0.82 -6.644,-0.53 -14.945,-1.33 -24.925,-2.39 -9.965,-1.06 -21.395,-2.53 -34.293,-4.38 -12.879,-1.87 -26.489,-4.12 -40.829,-6.78 l -9.503,-1.76 4.578,-41.92 10.593,1.44 c 9.051,1.23 19.039,1.78 25.981,-0.11 2.156,-0.59 3.953,-1.6 5.461,-3.02 1.457,-1.38 2.648,-3.55 3.551,-6.42 1.125,-3.59 1.695,-8.58 1.695,-14.83 V 684.531 c 0,-12.312 7.805,-20.269 19.879,-20.269 2.164,0 19.371,0.066 23.871,0.195 4.48,0.137 9.371,0.422 14.664,0.828 5.277,0.399 10.68,0.942 16.254,1.621 5.578,0.684 10.683,1.43 15.219,2.231 11.379,1.883 18.171,9.847 18.171,21.308 V 1132.9 c 0,14.2 -8.828,23.02 -23.031,23.02" /><path
         id="path22"
         style="fill:#ffffff;fill-opacity:1;fill-rule:nonzero;stroke:none"
         d="m 1564.39,858.32 -13.8,-0.222 -0.08,0.222 -172.84,-2.996 -62.64,-168.828 c -1.16,-0.051 -3.73,-0.191 -6.79,-0.359 -6.7,-0.25 -15.88,-0.457 -20.35,-0.617 l 178.44,427.79 -8.99,24.67 c 3.58,0.62 7.66,1.19 12.21,1.72 5.61,0.65 11,1.24 16.2,1.76 3.67,0.36 7.08,0.64 10.36,0.88 0.25,-0.37 0.55,-0.89 0.9,-1.78 l 175.3,-451.189 c -4.09,-0.637 -8.59,-1.23 -13.53,-1.781 -5.78,-0.637 -11.42,-1.152 -16.92,-1.539 -3.94,-0.27 -7.55,-0.461 -11.01,-0.61 z M 1706.2,695.395 1530.3,1148.11 c -3.89,9.98 -11.59,15.7 -21.12,15.7 -2.25,0 -5.73,-0.13 -10.49,-0.41 -0.16,-0.01 -0.34,-0.02 -0.5,-0.04 -0.97,0.14 -1.88,0.45 -2.9,0.45 -2.25,0 -5.72,-0.13 -10.48,-0.41 -4.6,-0.28 -9.6,-0.68 -15.01,-1.21 -5.3,-0.53 -10.81,-1.14 -16.54,-1.8 -5.92,-0.69 -11.1,-1.45 -15.2,-2.22 -12,-1.9 -16.28,-10.23 -16.28,-17.39 0,-1.76 0.33,-3.82 1.41,-7.89 l 6.91,-19.05 -178.69,-428.5 c -1.03,-2.016 -1.56,-4.274 -1.56,-6.719 0,-7.148 5.18,-14.359 16.73,-14.359 4.32,0 8.34,0.051 12.17,0.136 0.58,-0.039 1.1,-0.136 1.71,-0.136 7.79,0 14.77,0.14 20.97,0.406 6.3,0.277 11.9,0.691 17.18,1.273 7.52,1.079 13,5.289 15.39,11.813 l 58.24,156.973 144.14,2.316 61.63,-160.316 c 3.16,-7.922 9.98,-12.465 18.74,-12.465 2.15,0 5.66,0.066 10.55,0.195 0.45,0.012 0.97,0.043 1.44,0.059 0.65,-0.051 1.22,-0.254 1.89,-0.254 2.16,0 5.67,0.066 10.55,0.195 4.85,0.137 10.2,0.414 16,0.82 5.78,0.399 11.72,0.942 17.79,1.614 6.13,0.683 11.62,1.429 16.35,2.218 10.34,1.543 16.76,8.512 16.76,18.188 0,2.172 -0.52,4.48 -1.88,8.098" /><path
         id="path24"
         style="fill:#ffffff;fill-opacity:1;fill-rule:nonzero;stroke:none"
         d="m 1412.58,888.957 51.24,137.363 52.6,-137.363 z m -30,-20.824 h 164.13 13.88 l -90.19,235.457 -87.82,-235.457" /><path
         id="path26"
         style="fill:#ffffff;fill-opacity:1;fill-rule:nonzero;stroke:none"
         d="m 3695.85,849.535 -13.8,-0.222 -0.08,0.222 -172.84,-2.996 -62.64,-168.828 c -1.16,-0.051 -3.73,-0.191 -6.79,-0.359 -6.7,-0.25 -15.88,-0.457 -20.35,-0.618 l 178.44,427.786 -8.99,24.67 c 3.58,0.62 7.66,1.19 12.21,1.73 5.6,0.64 11,1.23 16.19,1.76 3.68,0.36 7.09,0.64 10.37,0.87 0.25,-0.37 0.55,-0.88 0.9,-1.78 l 175.3,-451.184 c -4.09,-0.637 -8.6,-1.234 -13.53,-1.781 -5.78,-0.641 -11.42,-1.153 -16.92,-1.539 -3.94,-0.274 -7.55,-0.461 -11.02,-0.61 z m 141.81,-162.93 -175.9,452.715 c -3.89,9.98 -11.59,15.71 -21.12,15.71 -2.26,0 -5.73,-0.14 -10.49,-0.42 -0.16,0 -0.34,-0.02 -0.5,-0.03 -0.98,0.13 -1.88,0.45 -2.9,0.45 -2.25,0 -5.72,-0.14 -10.48,-0.42 -4.6,-0.27 -9.6,-0.67 -15.01,-1.21 -5.3,-0.53 -10.81,-1.13 -16.55,-1.79 -5.91,-0.7 -11.09,-1.46 -15.2,-2.23 -12,-1.89 -16.27,-10.22 -16.27,-17.39 0,-1.76 0.33,-3.81 1.41,-7.88 l 6.9,-19.06 -178.69,-428.495 c -1.03,-2.016 -1.55,-4.274 -1.55,-6.719 0,-7.148 5.17,-14.363 16.73,-14.363 4.32,0 8.34,0.054 12.17,0.14 0.57,-0.043 1.1,-0.14 1.71,-0.14 7.79,0 14.77,0.144 20.97,0.41 6.3,0.277 11.9,0.691 17.18,1.273 7.52,1.078 13,5.289 15.39,11.809 l 58.24,156.976 144.14,2.313 61.62,-160.313 c 3.16,-7.925 9.98,-12.468 18.74,-12.468 2.16,0 5.67,0.07 10.55,0.199 0.46,0.012 0.98,0.043 1.45,0.058 0.65,-0.054 1.22,-0.257 1.89,-0.257 2.16,0 5.67,0.07 10.55,0.199 4.85,0.137 10.2,0.414 16,0.82 5.78,0.399 11.71,0.942 17.79,1.613 6.13,0.684 11.62,1.43 16.35,2.215 10.34,1.547 16.76,8.516 16.76,18.192 0,2.168 -0.53,4.48 -1.88,8.093" /><path
         id="path28"
         style="fill:#ffffff;fill-opacity:1;fill-rule:nonzero;stroke:none"
         d="m 3544.04,880.172 51.23,137.368 52.61,-137.368 z m -30,-20.828 h 164.13 13.88 l -90.2,235.466 -87.81,-235.466" /><path
         id="path30"
         style="fill:#ffffff;fill-opacity:1;fill-rule:nonzero;stroke:none"
         d="m 950.262,1304.38 h -14.621 l 14.621,-93.79 z" /><path
         id="path32"
         style="fill:#ffffff;fill-opacity:1;fill-rule:nonzero;stroke:none"
         d="m 1120.22,1284.88 -14.26,4.5 -8.87,-89.29 z" /><path
         id="path34"
         style="fill:#ffffff;fill-opacity:1;fill-rule:nonzero;stroke:none"
         d="m 824.262,1276.62 c 0,0 99.074,28.3 195.868,17.64 98.06,-10.8 184.23,-37.4 184.23,-37.4 0,0 -104.5,19.3 -194.22,29.71 -72.519,8.41 -185.878,-9.95 -185.878,-9.95" /><path
         id="path36"
         style="fill:#ffffff;fill-opacity:1;fill-rule:nonzero;stroke:none"
         d="m 998.848,1376.89 c 0,0 -4.145,11.74 3.992,14.72 16.41,6.03 22,-11.81 20.91,-30.16 -1.63,-27.51 -12.85,-66.29 -14.23,-66.18 -1.39,0.11 11.04,88.94 2.61,89.55 -4.73,0.34 -13.282,-7.93 -13.282,-7.93" /><path
         id="path38"
         style="fill:#ffffff;fill-opacity:1;fill-rule:nonzero;stroke:none"
         d="m 1086.61,929.855 c 9.39,4.145 31.85,13.657 40.42,18.676 14.39,8.461 27.12,18.75 37.85,30.586 10.9,11.981 19.53,25.973 25.66,41.543 6.16,15.64 9.28,33.84 9.28,54.13 0,19.24 -3.33,36.23 -9.9,50.5 -6.53,14.2 -15.44,26.48 -26.45,36.53 -10.88,9.95 -23.75,18.11 -38.26,24.26 -14.07,5.99 -29.14,10.73 -44.79,14.08 -15.4,3.35 -31.42,5.66 -47.59,6.89 -16.13,1.2 -31.52,1.81 -45.736,1.81 -33.328,0 -66.625,-1.74 -98.973,-5.18 -31.883,-3.43 -63.25,-7.74 -93.234,-12.82 l -7.446,-1.26 c 0,0 306.939,-5.06 306.509,-129.57 -0.07,-20 -2.89,-37.17 -8.57,-51.05 -5.58,-13.609 -13.82,-24.949 -24.49,-33.718 -10.87,-8.946 -24.72,-15.875 -41.16,-20.598 -16.91,-4.891 -36.789,-8.101 -59.082,-9.543 l -8.773,-0.566 13.77,-40.719 19.398,2.512 -13.559,27.621 c 0,0 143.656,6.086 148.736,131.991 5.69,141.24 -312.743,122.67 -280.966,126.08 32.164,3.43 117.293,6.88 184.626,-4.04 96.34,-15.62 138.52,-52.91 140.84,-119.73 3.23,-93.235 -58.34,-126.426 -67.74,-129.192 -9.4,-2.762 -23.67,-5.109 -23.67,-5.109 0,0 15.14,-4.723 13.3,-4.114" /><path
         id="path40"
         style="fill:#ffffff;fill-opacity:1;fill-rule:nonzero;stroke:none"
         d="m 1107.07,871.797 c 31.81,-19.086 50.3,-234.887 83.38,-245.063 33.09,-10.179 -7.03,-56.507 113.07,-159.953 -79.66,55.61 -138.38,101.438 -154.5,145.551 -16.12,44.109 -6.32,158.77 -41.95,259.465" /><path
         id="path42"
         style="fill:#ffffff;fill-opacity:1;fill-rule:nonzero;stroke:none"
         d="m 1436.63,453.59 c 0,0 70.46,-5.57 79.79,-44.59 9.33,-39.02 -34.82,-74.609 -67.06,-88.609 -14.26,-6.192 -97.56,-16.532 -109.43,27.578 -6.66,24.75 23.75,44.109 32.67,32.453 5.08,-6.633 -18.31,-12.942 -10.62,-31.602 7.69,-18.66 114.52,-17.39 120.04,36.899 3.94,38.793 -45.39,67.871 -45.39,67.871" /><path
         id="path44"
         style="fill:#ffffff;fill-opacity:1;fill-rule:nonzero;stroke:none"
         d="m 1421.02,383.18 c 0,0 12.64,20.781 -5.17,41.558 -16.69,19.481 -54.4,33.942 -76.87,23.203 -16.85,-8.062 -37.23,-42.711 -43.59,-88.089 -3.15,-22.481 9.4,-130.622 -15.91,-134.872 -25.3,-4.242 -57.47,5.911 -87.8,32.192 -67.19,58.25 -155.69,-80.551 -229.914,-91.582 -25.739,-3.828 -138.668,52.98 -187.446,91.582 22.481,-31.383 119.11,-116.75 175.942,-119.203 68.708,-2.969 147.048,101 188.618,99.301 41.57,-1.7 95.43,-55.141 126.82,-41.571 31.39,13.582 36.9,63.992 38.6,107.313 1.7,43.316 18.92,81.09 29.69,96.277 7.21,10.18 41.57,30.539 61.93,18.672 20.35,-11.883 25.1,-34.781 25.1,-34.781" /><path
         id="path46"
         style="fill:#ffffff;fill-opacity:1;fill-rule:nonzero;stroke:none"
         d="m 799.563,262.289 c 0,0 87.429,49.539 182.808,171.231 75.189,95.941 113.069,260.23 110.269,309.66 -7.35,129.836 -98.21,154.73 -126.995,160.656 -2.02,11.769 83.185,-8.367 107.665,-32.039 53.38,-51.625 68.09,-136.676 26.54,-259.465 C 1073.47,534.395 1005.27,409 949.324,355.18 917.938,324.988 799.563,262.289 799.563,262.289" /><path
         id="path48"
         style="fill:#ffffff;fill-opacity:1;fill-rule:nonzero;stroke:none"
         d="m 1123.84,626.125 c 0,0 21.33,-310.477 10.1,-334.656 -11.22,-24.168 42.93,2.179 42.93,2.179 0,0 -10.81,40.543 -13.89,68.481 -3.86,34.992 -34.05,251.269 -39.14,263.996" /><path
         id="path50"
         style="fill:#ffffff;fill-opacity:1;fill-rule:nonzero;stroke:none"
         d="m 1073.31,933.969 c 145.21,-19.934 152.1,-212.321 181.36,-279.762 29.27,-67.437 100.55,-161.918 176.87,-193.406 -92.04,21.199 -193.62,123.109 -207.81,165.324 -46.02,136.898 -63.04,251.621 -150.42,307.844" /><path
         id="path52"
         style="fill:#ffffff;fill-opacity:1;fill-rule:nonzero;stroke:none"
         d="m 1054.9,829.805 7.63,-8.907 c 0,0 -68.897,-272.164 -377.913,-406.867 C 910.73,562.91 1054.9,829.805 1054.9,829.805" /><path
         id="path54"
         style="fill:#ffffff;fill-opacity:1;fill-rule:nonzero;stroke:none"
         d="m 691.402,359.422 c -16.539,-23.75 -54.703,-11.024 -53.867,15.269 1.172,36.61 26.457,38.688 53.445,30.118 47.083,-14.95 90.977,-111.161 132.969,-106.571 -35.633,-21.09 -85.418,57.563 -99.039,69.672 -22.902,20.36 -59.039,31.988 -64.472,14.86 -8.27,-26.09 30.964,-23.348 30.964,-23.348" /><path
         id="path56"
         style="fill:#ffffff;fill-opacity:1;fill-rule:nonzero;stroke:none"
         d="M 858.676,690.348 V 1127.7 c 0,3.86 1.453,5.54 5.449,6.21 4.543,0.8 9.59,1.53 15.066,2.21 5.551,0.66 10.957,1.21 16.219,1.61 4.613,0.36 8.848,0.6 12.801,0.75 1.543,-0.44 2.258,-1.61 2.258,-4.62 V 696.512 c 0,-3.871 -1.453,-5.551 -5.438,-6.215 -4.543,-0.793 -9.593,-1.527 -15.093,-2.207 -5.54,-0.668 -10.93,-1.219 -16.196,-1.613 -4.855,-0.368 -9.304,-0.629 -13.441,-0.778 -1.153,0.664 -1.629,2.024 -1.625,4.649 z m 61.195,469.232 c -2.277,0 -5.777,-0.08 -10.551,-0.21 -0.211,0 -0.453,-0.02 -0.668,-0.03 -0.89,0.08 -1.738,0.24 -2.668,0.24 -2.277,0 -5.773,-0.08 -10.546,-0.21 -4.735,-0.14 -9.895,-0.44 -15.5,-0.86 -5.559,-0.43 -11.262,-1.01 -17.145,-1.72 -5.906,-0.72 -11.305,-1.51 -16.063,-2.35 -14.042,-2.33 -22.765,-12.58 -22.765,-26.74 V 690.348 c 0,-15.383 10.168,-25.715 25.308,-25.715 2.278,0 5.79,0.066 10.528,0.203 0.215,0.008 0.461,0.023 0.679,0.031 0.895,-0.078 1.747,-0.234 2.676,-0.234 2.278,0 5.789,0.066 10.532,0.203 4.738,0.137 9.906,0.441 15.503,0.867 5.575,0.422 11.278,0.996 17.161,1.719 5.898,0.723 11.289,1.512 16.062,2.344 14.039,2.332 22.766,12.582 22.766,26.746 v 437.348 c 0,15.38 -10.168,25.72 -25.309,25.72" /><path
         id="path58"
         style="fill:#ffffff;fill-opacity:1;fill-rule:nonzero;stroke:none"
         d="m 2099.65,1093.98 c 12.4,-3.07 23.1,-7.98 31.8,-14.6 8.5,-6.46 15.25,-14.89 20.04,-25.05 4.85,-10.28 7.31,-23.08 7.31,-38.06 0,-15.29 -2.35,-28.293 -7,-38.622 -4.54,-10.089 -11.2,-18.078 -20.38,-24.418 -9.48,-6.554 -21.84,-11.464 -36.73,-14.582 -14.23,-2.988 -31.09,-4.558 -49.98,-4.808 -0.01,0 -0.01,0.004 -0.02,0.004 v 158.426 c 0,3.25 0.58,4.53 0.55,4.65 2.26,0.71 6.73,1.51 15.21,1.78 14.14,-0.25 27.35,-1.79 39.2,-4.72 z m -67.83,-180.027 c 2.68,-0.144 5.3,-0.215 7.83,-0.215 1.96,0 3.79,0.09 5.71,0.117 1.44,-0.042 2.9,-0.117 4.29,-0.117 22.39,0 42.29,1.797 59.15,5.332 17.5,3.668 32.31,9.625 43.99,17.707 12.09,8.356 21.26,19.344 27.26,32.668 5.81,12.934 8.75,28.684 8.75,46.825 0,17.95 -3.11,33.63 -9.22,46.59 -6.18,13.1 -14.94,24.02 -26.03,32.45 -10.88,8.26 -24.03,14.35 -39.09,18.08 -14.52,3.59 -30.63,5.41 -47.88,5.41 -2.04,0 -3.85,-0.06 -5.71,-0.11 -1.44,0.02 -2.83,0.11 -4.29,0.11 -12.44,0 -21.41,-0.92 -27.42,-2.82 -5.41,-1.71 -14.47,-7.07 -14.47,-23.71 V 914.137 h 10 c 2.45,0 4.84,-0.067 7.13,-0.184" /><path
         id="path60"
         style="fill:#ffffff;fill-opacity:1;fill-rule:nonzero;stroke:none"
         d="m 2064.19,677.395 c -9.49,0.531 -18.84,1.168 -28.07,1.957 -9.42,0.793 -19.24,1.457 -29.45,1.984 -9.84,0.516 -21.41,0.781 -35.22,0.863 v 389.591 c 0,16.61 -4.14,27.79 -12.66,34.19 -8.93,6.68 -20.62,8.94 -35.14,8.22 -0.58,0.04 -1.17,0.07 -1.77,0.1 l -0.24,2.24 c 20.35,3.13 42.33,6.19 65.48,9.11 24.87,3.14 53.17,4.77 83.97,4.97 11.11,-0.1 22.78,-0.55 34.93,-1.47 13.29,-1.01 26.58,-2.87 39.5,-5.53 12.68,-2.62 24.9,-6.39 36.31,-11.22 11.04,-4.69 20.94,-10.82 29.41,-18.22 8.21,-7.17 14.79,-16.05 19.55,-26.38 4.75,-10.31 7.16,-22.75 7.16,-36.96 0,-10.37 -1.81,-20.87 -5.37,-31.195 -3.56,-10.344 -8.95,-20.254 -16,-29.461 -7.12,-9.282 -16.07,-17.797 -26.61,-25.301 -10.57,-7.535 -23,-13.707 -36.93,-18.348 l -6.84,-2.273 v -17.176 l 8.26,-1.461 c 4.13,-0.727 9.81,-2.059 16.87,-3.945 6.76,-1.813 14.11,-4.532 21.83,-8.086 7.71,-3.551 15.62,-8.102 23.52,-13.528 7.59,-5.222 14.52,-11.609 20.59,-18.984 5.98,-7.269 10.93,-15.945 14.73,-25.785 3.74,-9.707 5.63,-21.149 5.63,-34.008 0,-4.992 -0.62,-11.711 -1.86,-19.984 -1.18,-7.899 -3.79,-16.532 -7.75,-25.653 -3.96,-9.121 -9.73,-18.504 -17.16,-27.89 -7.25,-9.141 -17.16,-17.563 -29.46,-25.028 -12.48,-7.593 -28.27,-13.902 -46.93,-18.75 -17.99,-4.679 -39.83,-7.086 -64.79,-7.281 -9.28,0.082 -17.99,0.281 -25.49,0.692 z m 216.47,165.093 c -4.57,11.848 -10.6,22.375 -17.95,31.301 -7.25,8.82 -15.56,16.473 -24.7,22.758 -8.84,6.074 -17.75,11.191 -26.49,15.211 -5.67,2.609 -11.21,4.84 -16.54,6.652 5.88,3.094 11.42,6.492 16.59,10.184 12.17,8.66 22.56,18.558 30.89,29.429 8.36,10.911 14.76,22.727 19.03,35.106 4.28,12.421 6.46,25.111 6.46,37.711 0,17.12 -3.03,32.37 -9,45.33 -5.94,12.9 -14.2,24.03 -24.55,33.08 -10.08,8.79 -21.77,16.05 -34.76,21.56 -12.63,5.35 -26.11,9.51 -40.08,12.4 -13.76,2.83 -27.89,4.81 -42.02,5.88 -14.05,1.07 -27.62,1.61 -40.33,1.61 -2.08,0 -4.05,-0.07 -6.11,-0.08 -1.27,0.01 -2.63,0.08 -3.89,0.08 -34.07,0 -65.23,-1.75 -92.59,-5.2 -26.98,-3.41 -52.39,-7 -75.53,-10.68 l -9.4,-1.5 4.5,-41.21 9.86,1.23 0.14,-1.23 10.07,1.26 c 3.25,0.4 6.3,0.68 9.23,0.85 5.44,-0.45 9.95,-1.74 13.3,-4.24 1.4,-1.06 4.66,-4.94 4.66,-18.19 V 681.98 c 0,-12.054 7.64,-19.843 19.45,-19.843 13.22,0 24.9,-0.258 34.73,-0.77 9.99,-0.519 19.59,-1.172 28.81,-1.949 9.4,-0.797 18.95,-1.453 28.64,-1.992 9.75,-0.531 20.99,-0.801 33.43,-0.801 1.08,0 2.07,0.07 3.14,0.078 2.31,-0.019 4.45,-0.078 6.86,-0.078 28.02,0 52.58,2.691 72.99,8.004 20.55,5.34 38.14,12.41 52.29,21.012 14.32,8.699 26.01,18.687 34.74,29.699 8.52,10.75 15.19,21.637 19.84,32.348 4.66,10.722 7.74,21.042 9.18,30.66 1.4,9.382 2.08,16.882 2.08,22.941 0,15.324 -2.34,29.188 -6.97,41.199" /><path
         id="path62"
         style="fill:#ffffff;fill-opacity:1;fill-rule:nonzero;stroke:none"
         d="m 2046.34,882.637 c 20.04,0 38.6,-1.477 55.17,-4.375 15.77,-2.774 29.34,-7.836 40.34,-15.051 10.77,-7.07 18.9,-16.453 24.85,-28.691 5.99,-12.348 9.03,-28.563 9.03,-48.2 0,-7.605 -1.43,-16.078 -4.27,-25.175 -2.71,-8.7 -7.46,-16.957 -14.1,-24.524 -6.62,-7.516 -15.78,-13.879 -27.23,-18.906 -10.69,-4.695 -24.07,-6.91 -40.23,-7.391 -3.33,0.039 -6.52,-0.008 -10.08,0.153 -5.73,0.25 -11.27,0.636 -16.63,1.148 -5.37,0.508 -10.42,1.082 -15.17,1.73 -1.16,0.157 -2.27,0.317 -3.33,0.477 v 168.805 z m 136.04,-159.215 c 8.51,9.691 14.63,20.383 18.17,31.773 3.44,11.024 5.18,21.496 5.18,31.125 0,22.688 -3.71,41.844 -11.05,56.942 -7.46,15.351 -18.17,27.687 -31.86,36.676 -13.29,8.707 -29.39,14.773 -47.85,18.019 -17.71,3.106 -37.44,4.68 -58.63,4.68 h -10 -6.33 -10 c -2.16,0 -4.4,-0.168 -6.72,-0.492 l -8.6,-1.211 V 697.793 l 7.58,-1.891 c 3.55,-0.886 7.97,-1.683 13.08,-2.367 4.98,-0.68 10.31,-1.285 15.95,-1.82 5.68,-0.543 11.56,-0.949 17.64,-1.219 6.06,-0.266 11.78,-0.402 17.17,-0.402 1.3,0 2.47,0.121 3.74,0.144 2.05,-0.035 4.3,-0.144 6.26,-0.144 20.48,0 37.99,3.133 52.06,9.308 14.15,6.211 25.65,14.289 34.21,24.02" /><path
         id="path64"
         style="fill:#ffffff;fill-opacity:1;fill-rule:nonzero;stroke:none"
         d="m 2639.2,676.797 c -5.13,1.535 -9.64,4.148 -13.8,8.004 -4.35,4.012 -8.33,9.554 -11.85,16.48 -3.76,7.391 -7.29,16.91 -10.54,28.379 l -27.94,96.059 c -4.21,14.582 -9.43,26.531 -15.51,35.519 -6.43,9.485 -14.61,16.867 -24.31,21.946 -9.3,4.867 -20.52,8.136 -33.35,9.73 -9.93,1.223 -21.65,2.133 -34.95,2.711 l -0.58,3.66 c 16.51,1.602 31.53,4.336 44.76,8.156 16.73,4.813 30.98,12.004 42.36,21.372 11.61,9.546 20.54,21.796 26.55,36.421 5.84,14.282 8.8,31.586 8.8,51.426 0,16.98 -3.27,32.12 -9.71,45.03 -6.47,12.93 -15.57,23.75 -27.06,32.15 -11.18,8.18 -24.5,14.34 -39.58,18.33 -14.7,3.88 -30.66,5.85 -47.43,5.85 -2.01,0 -3.81,-0.07 -5.64,-0.13 -1.46,0.03 -2.89,0.13 -4.36,0.13 -11.66,0 -20.4,-1 -26.73,-3.06 -5.52,-1.79 -14.78,-7.28 -14.78,-23.88 V 682.77 c 0,-0.446 -0.03,-0.754 -0.02,-0.895 -0.22,-0.086 -0.59,-0.187 -1.17,-0.285 -4.31,-0.758 -9.05,-1.449 -14.24,-2.082 -5.22,-0.637 -10.32,-1.149 -15.29,-1.535 -4.5,-0.34 -8.65,-0.571 -12.52,-0.711 v 394.528 c 0,16.6 -4.14,27.78 -12.66,34.19 -8.96,6.7 -20.66,8.95 -35.21,8.22 -0.56,0.04 -1.13,0.06 -1.69,0.09 l -0.26,2.34 c 23.12,3.75 47.22,6.96 71.8,9.6 26.34,2.81 53.56,4.21 80.95,4.35 10.63,-0.13 21.76,-0.56 33.43,-1.43 13.36,-1.01 26.69,-2.93 39.6,-5.71 12.73,-2.75 24.97,-6.6 36.38,-11.44 10.99,-4.66 20.7,-10.8 28.87,-18.27 8,-7.3 14.5,-16.29 19.32,-26.71 4.74,-10.32 7.14,-22.89 7.14,-37.36 0,-15.73 -2.34,-29.66 -6.98,-41.426 -4.65,-11.8 -11.16,-22.363 -19.37,-31.398 -8.3,-9.16 -18.18,-17.125 -29.34,-23.684 -11.5,-6.746 -24.05,-12.578 -37.29,-17.324 l -6.62,-2.379 v -17.59 l 8.03,-1.613 c 6.04,-1.211 12.71,-3.129 19.81,-5.695 6.74,-2.438 13.43,-5.996 19.87,-10.574 6.4,-4.528 12.45,-10.414 18,-17.489 5.39,-6.898 9.8,-15.648 13.12,-26.054 l 29.12,-90.137 c 4.13,-12.887 7.8,-22.891 11.23,-30.547 3.78,-8.512 7.84,-14.93 12.37,-19.609 4.97,-5.161 10.81,-8.606 17.37,-10.246 3.2,-0.801 6.74,-1.364 10.68,-1.7 l 0.16,-2.683 c -2.38,-0.422 -4.84,-0.836 -7.39,-1.231 -5.69,-0.89 -11.34,-1.578 -16.89,-2.09 l -15.48,-1.375 c -1.5,-0.125 -2.71,-0.207 -3.94,-0.289 -5.59,0.278 -10.8,0.938 -15.24,2.27 z m -195.65,414.283 c 0,3.77 0.81,4.82 0.96,4.86 2.41,0.78 7.08,1.65 15.12,1.94 13.36,-0.32 26.06,-1.96 37.75,-5.04 12.66,-3.36 23.72,-8.45 32.89,-15.14 8.89,-6.5 15.95,-14.9 20.97,-24.95 5.05,-10.11 7.6,-22.24 7.6,-36.09 0,-17.226 -2.46,-31.984 -7.31,-43.84 -4.74,-11.527 -11.71,-21.136 -20.73,-28.558 -9.27,-7.621 -21.12,-13.543 -35.21,-17.602 -14.71,-4.246 -32.02,-7.039 -51.41,-8.297 l -0.63,-0.043 z m 283.32,-389.256 h -9.43 c -6.23,0 -11.38,0.5 -15.29,1.477 -2.91,0.722 -5.46,2.269 -7.84,4.73 -2.85,2.946 -5.7,7.602 -8.48,13.867 -3.1,6.899 -6.61,16.485 -10.46,28.52 l -29.11,90.129 c -4.04,12.637 -9.55,23.488 -16.43,32.269 -6.75,8.61 -14.21,15.836 -22.17,21.473 -7.31,5.191 -14.95,9.344 -22.73,12.356 6.03,2.871 11.86,5.964 17.48,9.261 12.92,7.582 24.37,16.832 34.03,27.492 9.84,10.829 17.64,23.446 23.18,37.512 5.55,14.106 8.36,30.5 8.36,48.75 0,17.37 -3.01,32.75 -8.98,45.73 -5.95,12.87 -14.02,24.01 -23.99,33.11 -9.85,8.99 -21.47,16.37 -34.54,21.91 -12.57,5.33 -26.03,9.56 -39.99,12.58 -13.8,2.97 -28.04,5.03 -42.31,6.1 -14.19,1.07 -27.82,1.61 -40.52,1.61 -2.04,0 -4.07,-0.07 -6.11,-0.08 -1.27,0.01 -2.64,0.08 -3.89,0.08 -29.59,0 -59.02,-1.55 -87.49,-4.59 -28.3,-3.02 -55.99,-6.83 -82.31,-11.31 l -9.29,-1.57 4.49,-41.12 9.86,1.23 0.14,-1.23 10.08,1.26 c 3.25,0.41 6.3,0.68 9.23,0.85 5.44,-0.45 9.95,-1.74 13.29,-4.24 1.4,-1.05 4.66,-4.94 4.66,-18.19 V 676.863 c 0,-12.054 7.64,-19.843 19.45,-19.843 1.84,0 4.68,0.058 8.18,0.156 0.61,-0.047 1.19,-0.156 1.82,-0.156 2.17,0 5.48,0.07 9.96,0.203 4.48,0.14 9.35,0.402 14.64,0.808 5.26,0.407 10.65,0.949 16.19,1.621 5.57,0.684 10.67,1.426 15.19,2.227 11.15,1.855 17.81,9.664 17.81,20.891 v 193.32 l 4.48,-0.145 c 16.15,-0.511 30.08,-1.484 41.42,-2.879 10.44,-1.296 19.37,-3.847 26.52,-7.597 6.84,-3.586 12.42,-8.641 17.03,-15.449 4.9,-7.239 9.22,-17.278 12.86,-29.872 l 27.93,-95.996 c 3.57,-12.644 7.58,-23.39 11.93,-31.937 4.6,-9.043 10.02,-16.481 16.09,-22.098 6.36,-5.879 13.64,-10.078 21.64,-12.48 7.47,-2.239 15.99,-3.375 25.33,-3.375 1.53,0 3.64,0.101 6.05,0.25 1.34,-0.047 2.57,-0.25 3.95,-0.25 2.55,0 6.29,0.207 11.29,0.629 l 15.61,1.382 c 5.98,0.551 12.03,1.293 18.14,2.247 6.1,0.949 11.7,1.968 16.85,3.043 l 8.45,1.761 -2.25,38.5" /><path
         id="path66"
         style="fill:#ffffff;fill-opacity:1;fill-rule:nonzero;stroke:none"
         d="m 2791.76,1087.6 c -1.95,6.18 -4.96,11.25 -8.95,15.06 -3.96,3.76 -8.69,6.42 -14.09,7.91 -6.36,1.75 -13.86,2.09 -21.5,1.76 -0.79,0.05 -1.61,0.03 -2.41,0.06 l -0.26,2.41 c 10.74,1.9 21.07,3.56 30.82,4.97 12.6,1.82 23.77,3.25 33.49,4.29 9.75,1.03 17.87,1.81 24.35,2.33 1.53,0.13 2.91,0.24 4.17,0.33 0.1,-0.34 0.23,-0.95 0.23,-2.17 V 682.77 c 0,-0.446 -0.03,-0.758 -0.02,-0.903 -0.21,-0.078 -0.58,-0.183 -1.16,-0.277 -4.3,-0.758 -9.05,-1.449 -14.24,-2.082 -5.22,-0.637 -10.33,-1.149 -15.3,-1.535 -4.5,-0.34 -8.65,-0.571 -12.51,-0.707 v 389.404 c 0,8.43 -0.86,15.27 -2.62,20.93 z m 53.26,59.55 c -1.17,0 -3.33,-0.1 -6.28,-0.3 -1.21,0.15 -2.42,0.3 -3.72,0.3 -1.96,0 -6.42,-0.26 -13.41,-0.82 -6.63,-0.53 -14.91,-1.33 -24.87,-2.38 -9.95,-1.07 -21.35,-2.53 -34.22,-4.38 -12.76,-1.84 -26.46,-4.12 -40.75,-6.76 l -9.13,-1.69 4.49,-41.09 9.85,1.34 0.15,-1.34 10.17,1.38 c 3.16,0.43 6.4,0.72 9.6,0.91 2.33,-0.19 4.55,-0.5 6.51,-1.03 2.21,-0.61 4.05,-1.63 5.6,-3.11 1.51,-1.44 2.75,-3.66 3.67,-6.57 1.13,-3.62 1.7,-8.65 1.7,-14.94 V 676.863 c 0,-12.054 7.64,-19.843 19.45,-19.843 1.84,0 4.69,0.058 8.18,0.156 0.61,-0.047 1.19,-0.156 1.82,-0.156 2.17,0 5.48,0.07 9.96,0.203 4.47,0.14 9.34,0.402 14.63,0.808 5.26,0.407 10.66,0.949 16.21,1.621 5.56,0.684 10.66,1.426 15.18,2.227 11.15,1.855 17.8,9.668 17.8,20.891 v 441.78 c 0,13.94 -8.66,22.6 -22.59,22.6" /><path
         id="path68"
         style="fill:#ffffff;fill-opacity:1;fill-rule:nonzero;stroke:none"
         d="m 3103.94,1097.23 c 30.89,0 58.68,-4.74 82.59,-14.09 23.72,-9.26 43.98,-22.5 60.23,-39.35 16.27,-16.89 28.84,-37.36 37.38,-60.856 8.61,-23.731 12.99,-50.403 12.99,-79.274 0,-30.492 -4.26,-58.273 -12.66,-82.578 -8.28,-24 -20.47,-44.648 -36.21,-61.371 -15.69,-16.676 -35.39,-29.688 -58.56,-38.684 -22.45,-8.722 -48.43,-13.199 -77.12,-13.55 -8.43,0.144 -16.69,0.492 -24.53,1.199 -7.09,0.637 -14.19,1.648 -21.2,3.027 v 376.627 c 0,5.59 1.61,6.08 2.59,6.38 5.43,1.67 13.65,2.52 24.42,2.52 z m 209.44,-282.675 c 9.12,26.402 13.75,56.383 13.75,89.105 0,31.211 -4.78,60.176 -14.19,86.102 -9.5,26.138 -23.55,48.978 -41.78,67.898 -18.26,18.95 -40.92,33.79 -67.34,44.12 -26.25,10.24 -56.49,15.45 -89.88,15.45 h -10 -10.08 -10 c -12.95,0 -22.86,-1.11 -30.28,-3.4 -6.25,-1.91 -16.73,-7.76 -16.73,-25.5 V 695.727 l 7.7,-1.821 c 10.4,-2.461 21.07,-4.195 31.72,-5.152 10.44,-0.938 21.47,-1.414 32.79,-1.414 1.19,0 2.31,0.125 3.49,0.137 2.18,-0.036 4.31,-0.137 6.51,-0.137 32.61,0 62.18,5.062 87.89,15.047 25.96,10.078 48.12,24.758 65.88,43.613 17.69,18.805 31.34,41.871 40.55,68.555" /><path
         id="path70"
         style="fill:#ffffff;fill-opacity:1;fill-rule:nonzero;stroke:none"
         d="m 3085.48,675.801 c -9,0.781 -17.95,1.629 -26.82,2.543 -9.01,0.933 -18.59,1.789 -28.79,2.582 -10.22,0.793 -22.41,1.203 -36.26,1.211 v 388.473 c 0,16.87 -4.14,28.17 -12.66,34.58 -8.93,6.7 -20.59,8.94 -35.11,8.23 -0.6,0.03 -1.2,0.07 -1.81,0.09 l -0.21,1.94 c 26.07,4.22 52.66,7.71 79.18,10.37 26.15,2.63 52.65,4.18 78.9,4.43 24.86,-0.1 49.42,-1.37 73.11,-4.21 23.28,-2.8 45.44,-7.56 65.84,-14.16 20.2,-6.52 38.96,-15.29 55.75,-26.07 16.5,-10.59 30.95,-23.97 42.91,-39.75 11.96,-15.78 21.42,-34.75 28.14,-56.376 6.76,-21.774 10.19,-47.399 10.19,-76.18 0,-38.012 -6.79,-72.188 -20.17,-101.574 -13.35,-29.332 -32.2,-54.453 -56.03,-74.68 -23.95,-20.305 -52.86,-35.957 -85.95,-46.527 -32.82,-10.481 -69.1,-15.817 -107.79,-15.996 -8.29,0.14 -15.81,0.496 -22.42,1.074 z m 311.27,319.808 c -7.4,23.861 -17.93,44.901 -31.3,62.531 -13.39,17.66 -29.55,32.64 -48.05,44.51 -18.24,11.7 -38.57,21.21 -60.4,28.27 -21.63,6.98 -45.05,12.02 -69.61,14.98 -27.63,3.32 -56.38,4.62 -85.43,4.35 -30.2,0.11 -60.81,-1.5 -90.95,-4.52 -30.14,-3.03 -60.38,-7.11 -89.85,-12.11 l -9.32,-1.57 4.53,-40.73 9.87,1.24 0.13,-1.24 10.06,1.26 c 3.24,0.41 6.29,0.68 9.22,0.85 5.44,-0.45 9.96,-1.73 13.3,-4.24 1.4,-1.05 4.66,-4.97 4.66,-18.58 V 681.98 c 0,-12.054 7.64,-19.843 19.45,-19.843 13.57,0 25.43,-0.383 35.27,-1.153 10,-0.777 19.43,-1.621 28.28,-2.535 8.98,-0.922 18.04,-1.781 27.13,-2.57 9.26,-0.813 20.09,-1.223 32.17,-1.223 0.68,0 1.33,0.067 2,0.071 2.61,-0.043 5.26,-0.071 8,-0.071 41.53,0 80.5,5.723 115.86,17.012 35.62,11.379 66.84,28.312 92.81,50.328 26.09,22.149 46.72,49.613 61.3,81.641 14.57,32.011 21.96,68.972 21.96,109.867 0,30.793 -3.73,58.414 -11.09,82.105" /><path
         id="path72"
         style="fill:#ffffff;fill-opacity:1;fill-rule:nonzero;stroke:none"
         d="m 4027.84,695.605 h 10 c 21.2,0 38.76,0.54 52.16,1.606 14.73,1.16 27.53,4.941 38.03,11.238 10.52,6.321 19.85,15.895 27.73,28.453 3.1,4.938 6.36,10.774 9.75,17.391 -0.53,-2.832 -1.02,-5.559 -1.61,-8.602 -1.96,-10.156 -4.1,-20.57 -6.44,-31.25 -2.3,-10.449 -4.62,-19.601 -6.66,-26.523 -1.8,-4.691 -4.34,-6.578 -8.79,-6.848 -18.06,0.227 -39.41,0.45 -64.51,0.672 -29.3,0.27 -64.56,0.395 -105.81,0.395 l -64.82,0.054 v 384.479 c 0,8.45 -0.86,15.29 -2.63,20.93 -1.95,6.19 -4.96,11.26 -8.94,15.06 -3.96,3.76 -8.69,6.42 -14.09,7.91 -6.36,1.75 -13.86,2.09 -21.5,1.76 -0.79,0.05 -1.61,0.03 -2.41,0.06 l -0.27,2.41 c 10.7,1.89 21.04,3.56 30.84,4.97 12.59,1.82 23.76,3.25 33.48,4.29 9.75,1.03 17.88,1.81 24.35,2.33 1.53,0.13 2.92,0.24 4.18,0.33 0.1,-0.34 0.23,-0.95 0.23,-2.17 V 733.168 c 0,-6.73 0.22,-11.914 0.65,-15.859 0.61,-5.606 2.49,-10.235 5.52,-13.704 3.34,-3.871 8.29,-6.265 14.69,-7.121 4.4,-0.589 10.25,-0.879 17.88,-0.879 h 10 z m 137.12,105.817 -0.86,-2.016 -9.14,2.016 -3.24,-7.656 c -8.41,-19.879 -16.12,-35.434 -22.9,-46.227 -6.2,-9.879 -13.29,-17.262 -21.07,-21.934 -7.83,-4.695 -17.69,-7.539 -29.33,-8.453 -12.89,-1.023 -29.91,-1.547 -50.58,-1.547 h -28.99 c -6.64,0 -11.75,0.235 -15.22,0.704 -1.47,0.195 -2.17,0.476 -2.29,0.476 0,0 0,0 -0.01,0 -0.12,0.215 -0.49,0.957 -0.69,2.711 -0.35,3.168 -0.53,7.77 -0.53,13.672 v 391.382 c 0,13.94 -8.66,22.6 -22.6,22.6 -1.17,0 -3.33,-0.1 -6.28,-0.3 -1.21,0.15 -2.42,0.3 -3.72,0.3 -1.96,0 -6.42,-0.26 -13.41,-0.82 -6.63,-0.53 -14.91,-1.33 -24.87,-2.38 -9.95,-1.07 -21.35,-2.53 -34.22,-4.38 -12.82,-1.86 -26.53,-4.13 -40.75,-6.76 l -9.13,-1.69 4.49,-41.09 9.85,1.34 0.15,-1.34 10.17,1.38 c 3.16,0.43 6.4,0.72 9.6,0.91 2.34,-0.19 4.55,-0.5 6.51,-1.03 2.21,-0.61 4.05,-1.63 5.6,-3.11 1.5,-1.44 2.73,-3.66 3.66,-6.59 1.14,-3.61 1.71,-8.63 1.71,-14.92 V 681.98 c 0,-3.91 1.13,-7.804 3.35,-11.554 1.82,-3.098 6.32,-8.289 16.1,-8.289 h 10 55.37 c 41.17,0 76.37,-0.125 105.63,-0.395 29.25,-0.258 53.71,-0.523 73.52,-0.785 0.54,0 1.05,0.082 1.58,0.106 2.82,-0.036 5.77,-0.071 8.42,-0.106 13.57,0 23.74,7.035 28.87,20.512 2.44,8.101 4.88,17.75 7.28,28.687 2.38,10.844 4.56,21.434 6.55,31.75 1.98,10.328 3.63,19.465 4.96,27.418 1.86,11.153 2.11,14.379 2.11,16.211 v 8.039 l -35.65,7.848" /></g></g></svg>