<?xml version="1.0" encoding="utf-8"?>
<!-- Generator: Adobe Illustrator 16.0.3, SVG Export Plug-In . SVG Version: 6.00 Build 0)  -->
<!DOCTYPE svg PUBLIC "-//W3C//DTD SVG 1.1//EN" "http://www.w3.org/Graphics/SVG/1.1/DTD/svg11.dtd">
<svg version="1.1" id="Layer_1" xmlns="http://www.w3.org/2000/svg" xmlns:xlink="http://www.w3.org/1999/xlink" x="0px" y="0px"
	 width="512px" height="512px" viewBox="0 0 512 512" enable-background="new 0 0 512 512" xml:space="preserve">
<circle fill="#1A1A1A" cx="256" cy="-285.522" r="232.982"/>
<circle fill="#1A1A1A" cx="788" cy="-283.522" r="232.982"/>
<circle fill="#1A1A1A" cx="1320" cy="-285.522" r="232.982"/>
<circle fill="#1A1A1A" cx="1852" cy="-285.522" r="232.982"/>
<circle fill="#1A1A1A" cx="2384" cy="-285.522" r="232.982"/>
<circle fill="#1A1A1A" cx="2916" cy="-285.522" r="232.982"/>
<circle fill="#1A1A1A" cx="3448" cy="-285.522" r="232.982"/>
<path fill="#FFFFFF" d="M388.821-308.954h-13.146c-6.037,0-12.442-4.721-14.238-10.479l-7.554-18.367
	c-2.841-5.313-1.671-13.152,2.563-17.42l9.364-9.323c4.269-4.282,4.269-11.272,0-15.533l-15.547-15.506
	c-4.261-4.268-11.23-4.268-15.499,0l-9.365,9.33c-4.24,4.261-12.1,5.423-17.427,2.569l-18.333-7.547
	c-5.744-1.782-10.471-8.188-10.471-14.231v-13.159c0-6.022-4.95-10.979-10.987-10.979h-21.938c-6.037,0-10.98,4.958-10.98,10.979
	v13.159c0,6.044-4.7,12.449-10.465,14.231l-18.353,7.547c-5.339,2.854-13.145,1.706-17.42-2.569l-9.365-9.33
	c-4.268-4.268-11.231-4.268-15.485,0l-15.512,15.506c-4.282,4.261-4.282,11.251,0,15.52l9.302,9.336
	c4.282,4.269,5.452,12.108,2.577,17.42l-7.54,18.381c-1.811,5.757-8.181,10.471-14.225,10.471l-13.173-0.006
	c-6.029,0-10.973,4.929-10.973,10.965v21.932c0,6.042,4.944,10.98,10.973,10.98h13.173c6.044,0.014,12.414,4.734,14.197,10.479
	l7.568,18.365c2.868,5.326,1.706,13.196-2.577,17.437l-9.329,9.321c-4.255,4.283-4.255,11.259,0,15.533l15.54,15.52
	c4.254,4.262,11.217,4.262,15.485,0l9.365-9.344c4.248-4.247,12.081-5.416,17.371-2.541l18.402,7.555
	c5.765,1.803,10.465,8.187,10.465,14.223v13.134c0,6.022,4.944,10.965,10.98,10.965h21.938c6.037,0,10.987-4.942,10.987-10.965
	v-13.134c0-6.036,4.728-12.42,10.471-14.223l18.389-7.555c5.305-2.875,13.159-1.706,17.427,2.541l9.309,9.344
	c4.269,4.262,11.238,4.262,15.499,0l15.547-15.52c4.269-4.274,4.269-11.25,0-15.533l-9.364-9.321
	c-4.234-4.24-5.403-12.11-2.563-17.437l7.554-18.365c1.796-5.744,8.236-10.465,14.238-10.465h13.146
	c6.044,0,10.967-4.93,10.967-10.974v-21.953C399.788-304.025,394.865-308.954,388.821-308.954 M312.087-287.029
	c0,30.293-24.55,54.829-54.837,54.829c-30.314,0-54.856-24.536-54.856-54.829c0-30.287,24.542-54.837,54.856-54.837
	C287.537-341.866,312.087-317.316,312.087-287.029"/>
<path fill="#FFFFFF" d="M871.615-198.554c0,22.761-18.442,41.201-41.202,41.201c-22.772,0-41.215-18.44-41.215-41.201
	c0-22.773,18.442-41.215,41.215-41.215C853.172-239.769,871.615-221.327,871.615-198.554"/>
<path fill="#FFFFFF" d="M898.762-379.8c0,22.771-18.442,41.213-41.214,41.213c-22.761,0-41.202-18.441-41.202-41.213
	c0-22.761,18.441-41.202,41.202-41.202C880.32-421.002,898.762-402.561,898.762-379.8"/>
<path fill="#FFFFFF" d="M724.517-271.114c0,22.761-18.442,41.203-41.203,41.203s-41.203-18.442-41.203-41.203
	s18.442-41.201,41.203-41.201S724.517-293.875,724.517-271.114"/>
<line fill="none" stroke="#FFFFFF" stroke-width="10" x1="683.439" y1="-272.439" x2="857.548" y2="-379.8"/>
<line fill="none" stroke="#FFFFFF" stroke-width="10" x1="834.107" y1="-197.367" x2="683.314" y2="-269.387"/>
<g>
	<path fill="#FFFFFF" d="M1376.854-155.358h-109.236v-18.508h5.834c7.776,0,13.444-1.071,16.999-3.219
		c3.552-2.144,5.733-5.161,6.538-9.053c0.805-3.888,1.207-9.587,1.207-17.1v-59.748c0-8.313-0.503-14.214-1.509-17.703
		c-1.006-3.485-3.621-6.035-7.846-7.645s-11.3-2.48-21.224-2.615v-18.508l82.48-17.301v123.52c0,11.266,1.408,18.979,4.225,23.135
		c2.816,4.159,10.326,6.236,22.531,6.236V-155.358z M1354.122-405.415c0,8.047-2.851,14.921-8.55,20.62
		c-5.702,5.702-12.573,8.55-20.62,8.55c-7.915,0-14.786-2.917-20.62-8.751s-8.751-12.639-8.751-20.419
		c0-8.047,2.882-14.953,8.65-20.721c5.765-5.765,12.674-8.65,20.721-8.65c8.179,0,15.088,2.816,20.721,8.449
		S1354.122-413.729,1354.122-405.415z"/>
</g>
<g>
	<path fill="#FFFFFF" d="M1766.338-332.611c0.236-12.96,2.458-24.84,6.66-35.64c4.196-10.8,10.08-20.16,17.641-28.08
		c7.56-7.92,16.678-14.096,27.359-18.54c10.677-4.438,22.618-6.66,35.82-6.66c17.038,0,31.258,2.34,42.66,7.02
		c11.396,4.68,20.576,10.502,27.54,17.46c6.958,6.964,11.937,14.462,14.939,22.5c2.998,8.044,4.5,15.542,4.5,22.5
		c0,8.64-0.844,16.144-2.52,22.5c-1.682,6.362-3.96,11.88-6.84,16.56c-2.88,4.68-6.12,8.764-9.721,12.24
		c-3.6,3.482-7.323,6.66-11.159,9.54c-3.842,2.88-7.685,5.704-11.521,8.46c-3.842,2.762-7.38,5.76-10.62,9
		c-3.24,3.239-6.063,6.84-8.46,10.799c-2.401,3.961-3.96,8.584-4.68,13.86v13.681h-48.601v-16.201
		c0.479-7.92,1.738-14.76,3.78-20.52c2.036-5.76,4.5-10.855,7.38-15.3c2.88-4.438,6.059-8.28,9.54-11.52
		c3.477-3.24,7.021-6.3,10.62-9.18c3.601-2.88,6.958-5.58,10.08-8.1c3.116-2.52,5.878-5.276,8.28-8.28
		c2.396-2.998,4.319-6.3,5.76-9.9s2.16-7.796,2.16-12.6c0-11.036-2.7-19.198-8.101-24.48c-5.399-5.276-12.903-7.92-22.5-7.92
		c-6.479,0-12.06,1.26-16.739,3.78c-4.681,2.52-8.522,5.883-11.521,10.08c-3.004,4.202-5.22,9.124-6.66,14.76
		c-1.439,5.642-2.159,11.7-2.159,18.18H1766.338z M1824.299-213.811h56.52v55.439h-56.52V-213.811z"/>
</g>
<path fill="#FFFFFF" d="M2429.502-273.69c5.011-1.39,11.38-3.303,19.427-5.89c65.179-20.897,57.039-101.914,57.039-101.914h-34.234
	h-16.392v-10.189h-142.681v10.189h-16.385h-34.235c0,0-8.227,81.31,57.052,101.914c7.99,2.53,14.329,4.419,19.34,5.79
	c9.891,12.022,22.051,20.567,35.388,23.509v72.951c-34.571,2.132-61.146,14.853-61.146,30.24h142.674
	c0-15.388-26.588-28.108-61.146-30.24v-72.951C2407.501-253.223,2419.642-261.705,2429.502-273.69 M2455.342-347.795v-23.509h16.392
	h24.425c-0.144,20.243-5.416,67.642-50.34,82.032c-2.567,0.816-4.849,1.533-7.018,2.206c10.32-17.638,16.547-39.352,16.547-60.729
	H2455.342z M2322.159-289.297c-44.974-14.21-50.196-61.764-50.302-82.007h24.419h16.385v23.509c0,21.378,6.208,43.073,16.522,60.692
	C2327.015-287.782,2324.721-288.499,2322.159-289.297 M2384.011-301.493l-31.499,21.913l11.119-36.703l-30.577-23.21l38.354-0.779
	l12.603-36.223l12.603,36.223l38.354,0.779l-30.577,23.21l11.113,36.703L2384.011-301.493z"/>
<g>
	<path fill-rule="evenodd" clip-rule="evenodd" fill="#FFFFFF" d="M3005.843-160.234c0,2.017,0,4.032,0,6.05
		c-3.61,8.461-6.286,10.215-15.609,10.215c-50.04,0.003-100.082,0.007-150.122-0.003c-1.301,0-2.621-0.062-3.899-0.278
		c-5.372-0.905-8.046-4.77-10.054-9.328c0-2.219,0-4.438,0-6.655c2.777-8.768,9.478-10.932,17.782-9.959
		c0-7.814,0.002-15.065-0.001-22.317c-0.002-8.494,0.741-16.905,3.16-25.078c7.333-24.768,22.396-43.084,45.678-54.498
		c3.193-1.565,5.579-4.044,5.601-7.6c0.022-3.722-2.036-6.488-5.604-8.213c-15.753-7.614-28.078-19.008-37.004-34.063
		c-8.944-15.09-12.305-31.518-11.854-48.902c0.16-6.215,0.025-12.439,0.025-18.468c-0.358-0.241-0.437-0.337-0.52-0.344
		c-0.501-0.034-1.006-0.101-1.502-0.063c-7.788,0.6-13.265-2.406-15.762-10.076c0-2.218,0-4.437,0-6.654
		c1.799-4.653,5.008-7.9,9.68-9.681c53.24,0,106.479,0,159.72,0c5.318,1.539,8.724,4.989,10.285,10.285c0,2.018,0,4.034,0,6.05
		c-2.773,8.618-9.25,10.962-17.784,9.873c0,1.222,0.01,1.995-0.002,2.769c-0.159,10.371,0.586,20.851-0.654,31.091
		c-3.761,31.065-20.114,53.724-47.893,68.056c-3.452,1.779-5.766,4.005-5.867,7.953c-0.106,4.098,2.641,6.263,5.841,8.035
		c2.887,1.6,5.891,3.025,8.631,4.847c23.583,15.679,37.17,37.499,39.489,65.843c0.753,9.211,0.337,18.519,0.453,27.784
		c0.014,1.048,0.002,2.1,0.002,3.477C2996.805-171.206,3003.087-168.709,3005.843-160.234z M2862.649-186.126
		c2.568-0.865,5.045-1.241,7.025-2.441c11.355-6.886,22.606-13.946,33.866-20.99c8.353-5.226,16.609-5.214,24.967,0.045
		c11.326,7.125,22.686,14.203,34.134,21.13c1.882,1.139,4.292,1.406,7.261,2.325c-0.319-6.475-0.173-11.93-0.924-17.259
		c-3.401-24.13-16.37-41.494-37.994-52.46c-4.79-2.43-8.904-5.522-11.68-10.148c-1.274-2.124-2.205-4.455-3.381-6.876
		c-0.325,0.794-0.6,1.429-0.848,2.073c-2.568,6.71-7.102,11.623-13.581,14.691c-9.439,4.467-17.509,10.682-24.047,18.82
		C2865.656-222.537,2861.085-205.706,2862.649-186.126z M2862.59-373.188c-1.277,16.373,1.952,31.309,10.834,44.902
		c1.111,1.702,2.282,2.407,4.366,2.402c25.493-0.074,50.989-0.081,76.482,0.014c2.151,0.008,3.278-0.824,4.34-2.467
		c4.584-7.093,7.79-14.752,9.612-22.984c1.595-7.206,1.621-14.493,1.244-21.867C2933.705-373.188,2898.259-373.188,2862.59-373.188z
		"/>
</g>
<circle fill="#FFFFFF" cx="3448.153" cy="-287.343" r="86.577"/>
<path fill="#FFFFFF" d="M3448.305-421.947c-74.256,0-134.451,60.196-134.451,134.453c0,74.256,60.195,134.451,134.451,134.451
	c74.257,0,134.451-60.195,134.451-134.451C3582.756-361.751,3522.562-421.947,3448.305-421.947z M3448.305-173.569
	c-62.919,0-113.925-51.006-113.925-113.925c0-62.919,51.006-113.926,113.925-113.926c62.92,0,113.926,51.006,113.926,113.926
	C3562.23-224.575,3511.225-173.569,3448.305-173.569z"/>
<circle fill="#1A1A1A" cx="3992" cy="-287.522" r="232.982"/>
<polygon fill="#FFFFFF" points="3964.733,-412.837 4047.327,-412.837 4020.776,-349.3 4058.388,-349.3 3992.005,-253.761 
	4031.093,-253.761 3964.733,-147.28 3964.733,-221.104 3925.612,-221.104 3961.769,-315.771 3925.612,-315.771 "/>
<circle fill="#1A1A1A" cx="4538" cy="-280.522" r="232.982"/>
<circle fill="#1A1A1A" cx="256" cy="255.478" r="232.982"/>
<circle fill="#1A1A1A" cx="788" cy="257.478" r="232.982"/>
<circle fill="#1A1A1A" cx="1320" cy="255.478" r="232.982"/>
<rect x="4409" y="-310.189" fill="#FFFFFF" width="73" height="110"/>
<rect x="4502" y="-368.189" fill="#FFFFFF" width="73" height="168"/>
<rect x="4595" y="-258.189" fill="#FFFFFF" width="73" height="58"/>
<path fill="#FFFFFF" d="M187.177,211.254h27.013v-12.256v-12.007v-2.001c0-11.556,0.299-29.415,8.703-40.471
	c8.855-11.707,21.011-19.66,41.924-19.66c34.065,0,48.424,4.852,48.424,4.852l-6.753,40.022c0,0-11.255-3.253-21.761-3.253
	c-10.504,0-19.91,3.751-19.91,14.257v4.253v14.008v12.256h43.069l-3.001,39.068h-40.067v135.771H214.19V250.322h-27.013V211.254
	L187.177,211.254z"/>
<defs>
	<filter id="Adobe_OpacityMaskFilter" filterUnits="userSpaceOnUse" x="1104" y="112.421" width="429.293" height="429.604">
		<feColorMatrix  type="matrix" values="1 0 0 0 0  0 1 0 0 0  0 0 1 0 0  0 0 0 1 0"/>
	</filter>
</defs>
<mask maskUnits="userSpaceOnUse" x="1104" y="112.421" width="429.293" height="429.604" id="SVGID_1_">
	<g filter="url(#Adobe_OpacityMaskFilter)">
		<circle fill="#FFFFFF" cx="1319" cy="255.478" r="232.982"/>
	</g>
</mask>
<g mask="url(#SVGID_1_)">
	<g>
		<polygon fill="#FFFFFF" points="1533.293,176.681 1474.875,176.681 1474.875,118.263 1445.663,118.263 1445.663,176.681 
			1387.249,176.681 1387.249,205.887 1445.663,205.887 1445.663,264.304 1474.875,264.304 1474.875,205.887 1533.293,205.887 		"/>
	</g>
	<g>
		<path fill="#FFFFFF" d="M1325.91,358.262c-11.737-8.81-37.281-26.856-37.281-38.973c0-14.207,4.059-21.199,25.426-37.894
			c21.91-17.121,37.418-39.682,37.418-67.679c0-30.495-12.467-58.164-35.923-71.599h33.235l28.3-29.697c0,0-93.51,0-126.627,0
			c-64.258,0-117.802,47.378-117.802,99.493c0,53.264,35.186,95.714,95.606,95.714c4.207,0,8.278-0.22,12.28-0.502
			c-3.924,7.52-6.726,15.893-6.726,24.68c0,14.794,8.142,23.237,18.203,33.027c-7.605,0-14.944,0.204-22.965,0.204
			c-73.559,0-125.056,50.627-125.056,99.219c0,47.843,62.073,77.77,135.636,77.77c83.866,0,135.443-47.591,135.443-95.442
			C1375.079,408.222,1366.803,388.933,1325.91,358.262z M1252.73,288.276c-34.135-1.025-66.564-32.337-72.459-77.15
			c-5.893-44.825,16.996-79.127,51.119-78.111c34.12,1.024,63.313,37.792,69.204,82.61
			C1306.48,260.445,1286.844,289.294,1252.73,288.276z M1239.362,520.873c-50.848,0-87.568-32.189-87.568-70.859
			c0-37.886,43.091-70.576,93.936-70.02c11.861,0.128,22.914,2.034,32.954,5.285c27.606,19.191,49.873,31.182,55.465,53.054
			c1.041,4.427,1.622,8.996,1.622,13.657C1335.771,490.657,1310.85,520.873,1239.362,520.873z"/>
	</g>
</g>
<path fill="#FFFFFF" d="M909.571,183.219c-8.857,3.929-18.377,6.584-28.367,7.777c10.196-6.113,18.028-15.792,21.717-27.326
	c-9.545,5.66-20.115,9.771-31.365,11.985c-9.01-9.6-21.847-15.597-36.053-15.597c-27.276,0-49.393,22.114-49.393,49.391
	c0,3.871,0.438,7.641,1.279,11.256c-41.049-2.06-77.444-21.724-101.805-51.605c-4.252,7.294-6.688,15.777-6.688,24.83
	c0,17.136,8.72,32.254,21.974,41.112c-8.097-0.257-15.713-2.479-22.372-6.179c-0.005,0.207-0.005,0.413-0.005,0.621
	c0,23.931,17.026,43.894,39.621,48.432c-4.145,1.129-8.508,1.733-13.013,1.733c-3.183,0-6.276-0.311-9.293-0.887
	c6.285,19.622,24.526,33.903,46.14,34.301c-16.904,13.248-38.201,21.144-61.342,21.144c-3.987,0-7.919-0.233-11.782-0.69
	c21.857,14.014,47.82,22.192,75.713,22.192c90.85,0,140.531-75.263,140.531-140.532c0-2.141-0.049-4.271-0.144-6.391
	C894.576,201.822,902.95,193.124,909.571,183.219z"/>
<g>
</g>
<g>
</g>
<g>
</g>
<g>
</g>
<g>
</g>
<g>
</g>
<g>
</g>
<g>
</g>
<g>
</g>
<g>
</g>
<g>
</g>
<g>
</g>
<g>
</g>
<g>
</g>
<g>
</g>
</svg>
